<svg xmlns="http://www.w3.org/2000/svg" xmlns:xlink="http://www.w3.org/1999/xlink" viewBox="0 0 512 512" width="512" height="512" style="width: 100%; height: 100%; transform: translate3d(0px, 0px, 0px); content-visibility: visible;" preserveAspectRatio="xMidYMid meet"><defs><clipPath id="__lottie_element_2"><rect width="512" height="512" x="0" y="0"/></clipPath><clipPath id="__lottie_element_4"><path d="M0,0 L512,0 L512,512 L0,512z"/></clipPath></defs><g clip-path="url(#__lottie_element_2)"><g clip-path="url(#__lottie_element_4)" style="display: block;" transform="matrix(1,0,0,1,0,0)" opacity="1"><g style="display: block;" transform="matrix(0.949999988079071,0,0,0.949999988079071,253.0050048828125,255.114013671875)" opacity="1"><g opacity="1" transform="matrix(1,0,0,1,0,0)"><path fill="rgb(232,232,232)" fill-opacity="1" d=" M-200.06300354003906,-200.031005859375 C-199.55987548828125,-163.77322387695312 -199.12326049804688,-131.39059448242188 -198.60568237304688,-102.40433502197266 C-198.0880889892578,-73.4180908203125 -197.4885711669922,-47.82734298706055 -196.6615753173828,-25.152482986450195 C-195.83457946777344,-2.4776229858398438 -194.78013610839844,17.282297134399414 -193.34976196289062,34.60589599609375 C-191.6443328857422,57.777103424072266 -189.4744415283203,76.74700164794922 -185.75216674804688,92.70909118652344 C-182.02989196777344,108.67117309570312 -176.75430297851562,121.62450408935547 -168.83670043945312,132.7635040283203 C-155.60235595703125,151.455810546875 -136.5375518798828,164.55575561523438 -108.9947280883789,178.15757751464844 C-81.45191192626953,191.75941467285156 -45.43115234375,205.8641357421875 1.715091347694397,226.56982421875 C66.51885223388672,200.15283203125 112.47109985351562,177.3922576904297 144.49237060546875,154.8273468017578 C176.51364135742188,132.26235961914062 194.60487365722656,109.89305877685547 203.68472290039062,84.25560760498047 C214.6730194091797,53.17266845703125 212.99636840820312,15.499990463256836 208.95030212402344,-31.09670639038086 C204.9042510986328,-77.69340515136719 198.4896240234375,-133.2169952392578 200,-200 C180,-200 89.98500061035156,-200.00799560546875 -0.03099999949336052,-200.01600646972656 C-90.0469970703125,-200.0240020751953 -180.06300354003906,-200.031005859375 -200.06300354003906,-200.031005859375z"/><path fill="rgb(120,120,120)" fill-opacity="1" d=" M-200.06300354003906,-200.031005859375 C-199.55987548828125,-163.77322387695312 -199.12326049804688,-131.39059448242188 -198.60568237304688,-102.40433502197266 C-198.0880889892578,-73.4180908203125 -197.4885711669922,-47.82734298706055 -196.6615753173828,-25.152482986450195 C-195.83457946777344,-2.4776229858398438 -194.78013610839844,17.282297134399414 -193.34976196289062,34.60589599609375 C-191.6443328857422,57.777103424072266 -189.4744415283203,76.74700164794922 -185.75216674804688,92.70909118652344 C-182.02989196777344,108.67117309570312 -176.75430297851562,121.62450408935547 -168.83670043945312,132.7635040283203 C-155.60235595703125,151.455810546875 -136.5375518798828,164.55575561523438 -108.9947280883789,178.15757751464844 C-81.45191192626953,191.75941467285156 -45.43115234375,205.8641357421875 1.715091347694397,226.56982421875 C66.51885223388672,200.15283203125 112.47109985351562,177.3922576904297 144.49237060546875,154.8273468017578 C176.51364135742188,132.26235961914062 194.60487365722656,109.89305877685547 203.68472290039062,84.25560760498047 C214.6730194091797,53.17266845703125 212.99636840820312,15.499990463256836 208.95030212402344,-31.09670639038086 C204.9042510986328,-77.69340515136719 198.4896240234375,-133.2169952392578 200,-200 C180,-200 89.98500061035156,-200.00799560546875 -0.03099999949336052,-200.01600646972656 C-90.0469970703125,-200.0240020751953 -180.06300354003906,-200.031005859375 -200.06300354003906,-200.031005859375z"/><path fill="rgb(237,243,207)" fill-opacity="1" d=" M-200.06300354003906,-200.031005859375 C-199.55987548828125,-163.77322387695312 -199.12326049804688,-131.39059448242188 -198.60568237304688,-102.40433502197266 C-198.0880889892578,-73.4180908203125 -197.4885711669922,-47.82734298706055 -196.6615753173828,-25.152482986450195 C-195.83457946777344,-2.4776229858398438 -194.78013610839844,17.282297134399414 -193.34976196289062,34.60589599609375 C-191.6443328857422,57.777103424072266 -189.4744415283203,76.74700164794922 -185.75216674804688,92.70909118652344 C-182.02989196777344,108.67117309570312 -176.75430297851562,121.62450408935547 -168.83670043945312,132.7635040283203 C-155.60235595703125,151.455810546875 -136.5375518798828,164.55575561523438 -108.9947280883789,178.15757751464844 C-81.45191192626953,191.75941467285156 -45.43115234375,205.8641357421875 1.715091347694397,226.56982421875 C66.51885223388672,200.15283203125 112.47109985351562,177.3922576904297 144.49237060546875,154.8273468017578 C176.51364135742188,132.26235961914062 194.60487365722656,109.89305877685547 203.68472290039062,84.25560760498047 C214.6730194091797,53.17266845703125 212.99636840820312,15.499990463256836 208.95030212402344,-31.09670639038086 C204.9042510986328,-77.69340515136719 198.4896240234375,-133.2169952392578 200,-200 C180,-200 89.98500061035156,-200.00799560546875 -0.03099999949336052,-200.01600646972656 C-90.0469970703125,-200.0240020751953 -180.06300354003906,-200.031005859375 -200.06300354003906,-200.031005859375z"/></g></g><g style="display: block;" transform="matrix(0.5701625347137451,-0.0073570371605455875,0.007744107395410538,0.6001600623130798,112.72514343261719,68.82643127441406)" opacity="1"><g opacity="1" transform="matrix(1,0,0,1,257.06298828125,256.84698486328125)"><path fill="rgb(0,223,127)" fill-opacity="1" d=" M-0.5860000252723694,141.7790069580078 C-82.74099731445312,141.7790069580078 -164.89500427246094,141.7469940185547 -247.0500030517578,141.86599731445312 C-251.49600219726562,141.8730010986328 -252.75100708007812,141.22900390625 -252.24000549316406,136.2429962158203 C-250.31900024414062,117.4739990234375 -245.61300659179688,99.41799926757812 -239.92100524902344,81.5260009765625 C-236.6060028076172,71.10399627685547 -232.35400390625,61.090999603271484 -227.08099365234375,51.56700134277344 C-222.718994140625,43.6879997253418 -218.28599548339844,35.81800079345703 -213.62100219726562,28.101999282836914 C-208.77000427246094,20.077999114990234 -203.39700317382812,12.602999687194824 -197.64599609375,5.357999801635742 C-189.0989990234375,-5.408999919891357 -179.5590057373047,-15.244999885559082 -169.17999267578125,-24.3439998626709 C-156.08200073242188,-35.82699966430664 -142.08299255371094,-45.95399856567383 -126.88700103759766,-54.387001037597656 C-124.04199981689453,-55.96500015258789 -123.94100189208984,-57.130001068115234 -125.35199737548828,-59.5620002746582 C-132.1820068359375,-71.33599853515625 -138.89599609375,-83.177001953125 -145.718994140625,-94.95600128173828 C-152.4510040283203,-106.57599639892578 -159.22300720214844,-118.1729965209961 -166.06399536132812,-129.72999572753906 C-168.1909942626953,-133.32400512695312 -165.73300170898438,-136.21400451660156 -164.32899475097656,-138.7469940185547 C-162.5959930419922,-141.8719940185547 -158.68099975585938,-140.49099731445312 -155.63699340820312,-140.91000366210938 C-151.8159942626953,-141.43600463867188 -150.92799377441406,-139.427001953125 -149.6300048828125,-136.29299926757812 C-147.07200622558594,-130.11300659179688 -144.5850067138672,-123.66699981689453 -138.677001953125,-119.5479965209961 C-137.9499969482422,-119.04100036621094 -137.4969940185547,-117.9489974975586 -137.20700073242188,-117.03600311279297 C-132.36000061035156,-101.73600006103516 -122.44400024414062,-89.13400268554688 -114.66000366210938,-75.427001953125 C-113.03500366210938,-72.56600189208984 -111.47200012207031,-69.66899871826172 -110.06500244140625,-66.68900299072266 C-109.1719970703125,-64.7979965209961 -108.5260009765625,-63.597999572753906 -105.84200286865234,-64.89099884033203 C-89.7229995727539,-72.6510009765625 -72.53800201416016,-77.49500274658203 -55.21799850463867,-81.42400360107422 C-48.6879997253418,-82.90499877929688 -41.435001373291016,-83.0479965209961 -34.85900115966797,-84.33100128173828 C-23.45800018310547,-86.55400085449219 -12.001999855041504,-86.38800048828125 -0.7409999966621399,-86.46700286865234 C20.172000885009766,-86.61399841308594 40.9739990234375,-84.13800048828125 61.52199935913086,-79.25800323486328 C76.49800109863281,-75.69999694824219 90.81199645996094,-70.63200378417969 104.91799926757812,-64.75499725341797 C107.25299835205078,-63.78200149536133 108.05899810791016,-64.38099670410156 109.12000274658203,-66.24099731445312 C119.50700378417969,-84.44599914550781 129.7100067138672,-102.76399993896484 140.5290069580078,-120.71099853515625 C143.9499969482422,-126.38700103759766 146.31399536132812,-132.7050018310547 150.61199951171875,-137.8280029296875 C153.45700073242188,-141.21800231933594 159.48300170898438,-141.87399291992188 162.8419952392578,-139.40499877929688 C165.072998046875,-137.76600646972656 165.85000610351562,-131.68600463867188 163.98699951171875,-128.41799926757812 C155.88800048828125,-114.20899963378906 147.68699645996094,-100.05500030517578 139.5489959716797,-85.86799621582031 C134.25999450683594,-76.64800262451172 129.0970001220703,-67.35600280761719 123.68599700927734,-58.209999084472656 C122.4749984741211,-56.1619987487793 123.44499969482422,-55.57400131225586 124.875,-54.84000015258789 C139.06900024414062,-47.55500030517578 151.8939971923828,-38.17100143432617 164.06500244140625,-28.024999618530273 C177.0240020751953,-17.222000122070312 188.78900146484375,-5.169000148773193 199.0590057373047,8.366999626159668 C208.67799377441406,21.04400062561035 217.53700256347656,34.104000091552734 224.6820068359375,48.349998474121094 C235.54600524902344,70.01399993896484 243.81900024414062,92.5250015258789 247.96600341796875,116.4739990234375 C249.16200256347656,123.38099670410156 250.56100463867188,130.2519989013672 251.906005859375,137.13299560546875 C252.75,141.45199584960938 250.45199584960938,141.84800720214844 246.87899780273438,141.843994140625 C164.39100646972656,141.76100158691406 81.9020004272461,141.7790069580078 -0.5860000252723694,141.7790069580078z M-95.06300354003906,50.20800018310547 C-95.79100036621094,35.82500076293945 -103.77999877929688,29.152999877929688 -116.57599639892578,28.336000442504883 C-127.69200134277344,27.62700080871582 -138.42599487304688,38.229000091552734 -137.9510040283203,49.0989990234375 C-137.43499755859375,60.891998291015625 -129.03900146484375,70.84300231933594 -116.80000305175781,71.03399658203125 C-104.94999694824219,71.21900177001953 -95.60600280761719,61.38199996948242 -95.06300354003906,50.20800018310547z M135.95700073242188,47.702999114990234 C136.2729949951172,35.560001373291016 124.5459976196289,28.0310001373291 114.99299621582031,28.340999603271484 C102.4020004272461,28.75 92.82499694824219,39.67300033569336 93.94100189208984,51.10900115966797 C95.11599731445312,63.145999908447266 105.9229965209961,71.64700317382812 119.08200073242188,70.06500244140625 C128.13600158691406,68.97699737548828 137.67999267578125,60.7869987487793 135.95700073242188,47.702999114990234z"/></g></g><g style="display: none;" transform="matrix(-0.7407536506652832,0.26312971115112305,-0.26312971115112305,-0.7407536506652832,327.9127197265625,324.0581359863281)" opacity="0.05014000000001389"><g opacity="1" transform="matrix(1,0,0,1,0,0)"><g opacity="0.15" transform="matrix(1,0,0,1,0,0)"><path fill="rgb(0,38,29)" fill-opacity="1" d=" M22.785999298095703,-67.0770034790039 C-66.47100067138672,-50.60499954223633 -145.3979949951172,5.359000205993652 -155.18099975585938,103.23200225830078 C-145.4010009765625,-10.291000366210938 -89.01799774169922,-46.5369987487793 22.785999298095703,-67.0770034790039z"/></g><g opacity="0.15" transform="matrix(1,0,0,1,0,0)"><path fill="rgb(0,38,29)" fill-opacity="1" d=" M22.785999298095703,-67.0770034790039 C-67.33799743652344,-47.33000183105469 -141.22000122070312,6.021999835968018 -155.18099975585938,103.23200225830078 C-145.24899291992188,-25.736000061035156 -94.59200286865234,-46.50199890136719 22.785999298095703,-67.0770034790039z"/></g><g opacity="0.15" transform="matrix(1,0,0,1,0,0)"><path fill="rgb(0,38,29)" fill-opacity="1" d=" M22.785999298095703,-67.0770034790039 C-65.85700225830078,-44.77799987792969 -138.63800048828125,8.159000396728516 -155.18099975585938,103.23200225830078 C-154.00100708007812,-33.89500045776367 -91.93699645996094,-46.60200119018555 22.785999298095703,-67.0770034790039z"/></g></g><g opacity="1" transform="matrix(1,0,0,1,0,0)"><g opacity="0.15" transform="matrix(1,0,0,1,0,0)"><path fill="rgb(206,239,255)" fill-opacity="1" d=" M-155.18099975585938,103.23200225830078 C-132.20899963378906,42.948001861572266 -100.51399993896484,-42.520999908447266 22.785999298095703,-67.0770034790039 C-68.31500244140625,-50.41999816894531 -144.8260040283203,3.7799999713897705 -155.18099975585938,103.23200225830078z"/></g><g opacity="0.15" transform="matrix(1,0,0,1,0,0)"><path fill="rgb(206,239,255)" fill-opacity="1" d=" M-155.18099975585938,103.23200225830078 C-128.93899536132812,56.65599822998047 -93.73999786376953,-44.516998291015625 22.785999298095703,-67.0770034790039 C-71.36799621582031,-53.1870002746582 -147.5850067138672,3.0959999561309814 -155.18099975585938,103.23200225830078z"/></g><g opacity="0.15" transform="matrix(1,0,0,1,0,0)"><path fill="rgb(206,239,255)" fill-opacity="1" d=" M-155.18099975585938,103.23200225830078 C-121.04499816894531,64.94300079345703 -99.55899810791016,-31.695999145507812 22.785999298095703,-67.0770034790039 C-71.36799621582031,-53.1870002746582 -147.5850067138672,3.0959999561309814 -155.18099975585938,103.23200225830078z"/></g></g></g><g style="display: none;" transform="matrix(-0.7407536506652832,0.26312971115112305,-0.26312971115112305,-0.7407536506652832,328.1935119628906,324.40625)" opacity="0.041783333333345496"><g opacity="1" transform="matrix(1,0,0,1,0,0)"><g opacity="0.15" transform="matrix(1,0,0,1,0,0)"><path fill="rgb(0,38,29)" fill-opacity="1" d=" M22.785999298095703,-67.0770034790039 C-66.47100067138672,-50.60499954223633 -145.3979949951172,5.359000205993652 -155.18099975585938,103.23200225830078 C-145.4010009765625,-10.291000366210938 -89.01799774169922,-46.5369987487793 22.785999298095703,-67.0770034790039z"/></g><g opacity="0.15" transform="matrix(1,0,0,1,0,0)"><path fill="rgb(0,38,29)" fill-opacity="1" d=" M22.785999298095703,-67.0770034790039 C-67.33799743652344,-47.33000183105469 -141.22000122070312,6.021999835968018 -155.18099975585938,103.23200225830078 C-145.24899291992188,-25.736000061035156 -94.59200286865234,-46.50199890136719 22.785999298095703,-67.0770034790039z"/></g><g opacity="0.15" transform="matrix(1,0,0,1,0,0)"><path fill="rgb(0,38,29)" fill-opacity="1" d=" M22.785999298095703,-67.0770034790039 C-65.85700225830078,-44.77799987792969 -138.63800048828125,8.159000396728516 -155.18099975585938,103.23200225830078 C-154.00100708007812,-33.89500045776367 -91.93699645996094,-46.60200119018555 22.785999298095703,-67.0770034790039z"/></g></g><g opacity="1" transform="matrix(1,0,0,1,0,0)"><g opacity="0.15" transform="matrix(1,0,0,1,0,0)"><path fill="rgb(206,239,255)" fill-opacity="1" d=" M-155.18099975585938,103.23200225830078 C-132.20899963378906,42.948001861572266 -100.51399993896484,-42.520999908447266 22.785999298095703,-67.0770034790039 C-68.31500244140625,-50.41999816894531 -144.8260040283203,3.7799999713897705 -155.18099975585938,103.23200225830078z"/></g><g opacity="0.15" transform="matrix(1,0,0,1,0,0)"><path fill="rgb(206,239,255)" fill-opacity="1" d=" M-155.18099975585938,103.23200225830078 C-128.93899536132812,56.65599822998047 -93.73999786376953,-44.516998291015625 22.785999298095703,-67.0770034790039 C-71.36799621582031,-53.1870002746582 -147.5850067138672,3.0959999561309814 -155.18099975585938,103.23200225830078z"/></g><g opacity="0.15" transform="matrix(1,0,0,1,0,0)"><path fill="rgb(206,239,255)" fill-opacity="1" d=" M-155.18099975585938,103.23200225830078 C-121.04499816894531,64.94300079345703 -99.55899810791016,-31.695999145507812 22.785999298095703,-67.0770034790039 C-71.36799621582031,-53.1870002746582 -147.5850067138672,3.0959999561309814 -155.18099975585938,103.23200225830078z"/></g></g></g><g style="display: none;" transform="matrix(-0.6785291433334351,0.32445624470710754,-0.32445624470710754,-0.6785291433334351,302.0672607421875,323.316162109375)" opacity="0.00024444444451333426"><g opacity="1" transform="matrix(1,0,0,1,0,0)"><g opacity="0.15" transform="matrix(1,0,0,1,0,0)"><path fill="rgb(0,38,29)" fill-opacity="1" d=" M22.785999298095703,-67.0770034790039 C-66.47100067138672,-50.60499954223633 -145.3979949951172,5.359000205993652 -155.18099975585938,103.23200225830078 C-145.4010009765625,-10.291000366210938 -89.01799774169922,-46.5369987487793 22.785999298095703,-67.0770034790039z"/></g><g opacity="0.15" transform="matrix(1,0,0,1,0,0)"><path fill="rgb(0,38,29)" fill-opacity="1" d=" M22.785999298095703,-67.0770034790039 C-67.33799743652344,-47.33000183105469 -141.22000122070312,6.021999835968018 -155.18099975585938,103.23200225830078 C-145.24899291992188,-25.736000061035156 -94.59200286865234,-46.50199890136719 22.785999298095703,-67.0770034790039z"/></g><g opacity="0.15" transform="matrix(1,0,0,1,0,0)"><path fill="rgb(0,38,29)" fill-opacity="1" d=" M22.785999298095703,-67.0770034790039 C-65.85700225830078,-44.77799987792969 -138.63800048828125,8.159000396728516 -155.18099975585938,103.23200225830078 C-154.00100708007812,-33.89500045776367 -91.93699645996094,-46.60200119018555 22.785999298095703,-67.0770034790039z"/></g></g><g opacity="1" transform="matrix(1,0,0,1,0,0)"><g opacity="0.15" transform="matrix(1,0,0,1,0,0)"><path fill="rgb(206,239,255)" fill-opacity="1" d=" M-155.18099975585938,103.23200225830078 C-132.20899963378906,42.948001861572266 -100.51399993896484,-42.520999908447266 22.785999298095703,-67.0770034790039 C-68.31500244140625,-50.41999816894531 -144.8260040283203,3.7799999713897705 -155.18099975585938,103.23200225830078z"/></g><g opacity="0.15" transform="matrix(1,0,0,1,0,0)"><path fill="rgb(206,239,255)" fill-opacity="1" d=" M-155.18099975585938,103.23200225830078 C-128.93899536132812,56.65599822998047 -93.73999786376953,-44.516998291015625 22.785999298095703,-67.0770034790039 C-71.36799621582031,-53.1870002746582 -147.5850067138672,3.0959999561309814 -155.18099975585938,103.23200225830078z"/></g><g opacity="0.15" transform="matrix(1,0,0,1,0,0)"><path fill="rgb(206,239,255)" fill-opacity="1" d=" M-155.18099975585938,103.23200225830078 C-121.04499816894531,64.94300079345703 -99.55899810791016,-31.695999145507812 22.785999298095703,-67.0770034790039 C-71.36799621582031,-53.1870002746582 -147.5850067138672,3.0959999561309814 -155.18099975585938,103.23200225830078z"/></g></g></g><g style="display: none;" transform="matrix(1.0935074090957642,-0.44605177640914917,0.44605177640914917,1.0935074090957642,270.6751403808594,242.1772003173828)" opacity="0.043960000000045484"><g opacity="1" transform="matrix(1,0,0,1,0,0)"><g opacity="0.15" transform="matrix(1,0,0,1,0,0)"><path fill="rgb(0,38,29)" fill-opacity="1" d=" M-155.18099975585938,103.23200225830078 C-130.0959930419922,82.83599853515625 -84.73899841308594,-45.534000396728516 38.56100082397461,-70.08999633789062 C-52.540000915527344,-53.43299865722656 -144.8260040283203,3.7799999713897705 -155.18099975585938,103.23200225830078z"/></g><g opacity="0.15" transform="matrix(1,0,0,1,0,0)"><path fill="rgb(0,38,29)" fill-opacity="1" d=" M-155.18099975585938,103.23200225830078 C-117.25900268554688,79.94200134277344 -77.96499633789062,-47.529998779296875 38.56100082397461,-70.08999633789062 C-55.59299850463867,-56.20000076293945 -147.5850067138672,3.0959999561309814 -155.18099975585938,103.23200225830078z"/></g><g opacity="0.15" transform="matrix(1,0,0,1,0,0)"><path fill="rgb(0,38,29)" fill-opacity="1" d=" M-155.18099975585938,103.23200225830078 C-108.75900268554688,94.16100311279297 -83.78399658203125,-34.70899963378906 38.56100082397461,-70.08999633789062 C-55.59299850463867,-56.20000076293945 -147.5850067138672,3.0959999561309814 -155.18099975585938,103.23200225830078z"/></g></g><g opacity="1" transform="matrix(1,0,0,1,0,0)"><g opacity="0.15" transform="matrix(1,0,0,1,0,0)"><path fill="rgb(206,239,255)" fill-opacity="1" d=" M38.56100082397461,-70.08999633789062 C-50.69499969482422,-53.61800003051758 -145.3979949951172,5.359000205993652 -155.18099975585938,103.23200225830078 C-148.59800720214844,-3.4690001010894775 -73.24299621582031,-49.54999923706055 38.56100082397461,-70.08999633789062z"/></g><g opacity="0.15" transform="matrix(1,0,0,1,0,0)"><path fill="rgb(206,239,255)" fill-opacity="1" d=" M38.56100082397461,-70.08999633789062 C-51.5629997253418,-50.34299850463867 -141.22000122070312,6.021999835968018 -155.18099975585938,103.23200225830078 C-152.3780059814453,-8.973999977111816 -78.81700134277344,-49.51499938964844 38.56100082397461,-70.08999633789062z"/></g><g opacity="0.15" transform="matrix(1,0,0,1,0,0)"><path fill="rgb(206,239,255)" fill-opacity="1" d=" M38.56100082397461,-70.08999633789062 C-50.082000732421875,-47.79100036621094 -138.63800048828125,8.159000396728516 -155.18099975585938,103.23200225830078 C-161.78199768066406,-12.746999740600586 -76.16200256347656,-49.6150016784668 38.56100082397461,-70.08999633789062z"/></g></g></g><g style="display: block;" transform="matrix(-0.9676911234855652,0.23332266509532928,-0.23332266509532928,-0.9676911234855652,298.764404296875,356.8420104980469)" opacity="0.20021333333333946"><g opacity="1" transform="matrix(1,0,0,1,0,0)"><g opacity="0.15" transform="matrix(1,0,0,1,0,0)"><path fill="rgb(0,38,29)" fill-opacity="1" d=" M22.785999298095703,-67.0770034790039 C-66.47100067138672,-50.60499954223633 -145.3979949951172,5.359000205993652 -155.18099975585938,103.23200225830078 C-145.4010009765625,-10.291000366210938 -89.01799774169922,-46.5369987487793 22.785999298095703,-67.0770034790039z"/></g><g opacity="0.15" transform="matrix(1,0,0,1,0,0)"><path fill="rgb(0,38,29)" fill-opacity="1" d=" M22.785999298095703,-67.0770034790039 C-67.33799743652344,-47.33000183105469 -141.22000122070312,6.021999835968018 -155.18099975585938,103.23200225830078 C-145.24899291992188,-25.736000061035156 -94.59200286865234,-46.50199890136719 22.785999298095703,-67.0770034790039z"/></g><g opacity="0.15" transform="matrix(1,0,0,1,0,0)"><path fill="rgb(0,38,29)" fill-opacity="1" d=" M22.785999298095703,-67.0770034790039 C-65.85700225830078,-44.77799987792969 -138.63800048828125,8.159000396728516 -155.18099975585938,103.23200225830078 C-154.00100708007812,-33.89500045776367 -91.93699645996094,-46.60200119018555 22.785999298095703,-67.0770034790039z"/></g></g><g opacity="1" transform="matrix(1,0,0,1,0,0)"><g opacity="0.15" transform="matrix(1,0,0,1,0,0)"><path fill="rgb(206,239,255)" fill-opacity="1" d=" M-155.18099975585938,103.23200225830078 C-132.20899963378906,42.948001861572266 -100.51399993896484,-42.520999908447266 22.785999298095703,-67.0770034790039 C-68.31500244140625,-50.41999816894531 -144.8260040283203,3.7799999713897705 -155.18099975585938,103.23200225830078z"/></g><g opacity="0.15" transform="matrix(1,0,0,1,0,0)"><path fill="rgb(206,239,255)" fill-opacity="1" d=" M-155.18099975585938,103.23200225830078 C-128.93899536132812,56.65599822998047 -93.73999786376953,-44.516998291015625 22.785999298095703,-67.0770034790039 C-71.36799621582031,-53.1870002746582 -147.5850067138672,3.0959999561309814 -155.18099975585938,103.23200225830078z"/></g><g opacity="0.15" transform="matrix(1,0,0,1,0,0)"><path fill="rgb(206,239,255)" fill-opacity="1" d=" M-155.18099975585938,103.23200225830078 C-121.04499816894531,64.94300079345703 -99.55899810791016,-31.695999145507812 22.785999298095703,-67.0770034790039 C-71.36799621582031,-53.1870002746582 -147.5850067138672,3.0959999561309814 -155.18099975585938,103.23200225830078z"/></g></g></g></g></g></svg>