<svg xmlns="http://www.w3.org/2000/svg" xmlns:xlink="http://www.w3.org/1999/xlink" viewBox="0 0 512 512" width="512" height="512" style="width: 100%; height: 100%; transform: translate3d(0px, 0px, 0px); content-visibility: visible;" preserveAspectRatio="xMidYMid meet"><defs><clipPath id="__lottie_element_2"><rect width="512" height="512" x="0" y="0"/></clipPath><clipPath id="__lottie_element_4"><path d="M0,0 L512,0 L512,512 L0,512z"/></clipPath></defs><g clip-path="url(#__lottie_element_2)"><g clip-path="url(#__lottie_element_4)" style="display: block;" transform="matrix(1,0,0,1,0,0)" opacity="1"><g style="display: block;" transform="matrix(0.949999988079071,0,0,0.949999988079071,253.0050048828125,255.114013671875)" opacity="1"><g opacity="1" transform="matrix(1,0,0,1,0,0)"><path fill="rgb(232,232,232)" fill-opacity="1" d=" M-200.06300354003906,-200 C-201.2788848876953,-190.32020568847656 -198.02719116210938,-175.54348754882812 -194.61563110351562,-154.99256896972656 C-191.20407104492188,-134.441650390625 -187.6326141357422,-108.11636352539062 -188.20712280273438,-75.33824157714844 C-188.54470825195312,-52.28974533081055 -189.9903564453125,-26.549150466918945 -189.0668487548828,0.73441082239151 C-188.1433563232422,28.017972946166992 -184.8518524169922,56.843658447265625 -175.71315002441406,86.0641860961914 C-171.60934448242188,98.34648895263672 -165.40805053710938,110.70976257324219 -157.72422790527344,122.41254425048828 C-150.0404052734375,134.11532592773438 -140.87307739257812,145.15960693359375 -130.84019470214844,154.8016815185547 C-118.20298767089844,167.81961059570312 -95.59312438964844,166.9284210205078 -72.99380493164062,171.36830139160156 C-53.38157272338867,175.22132873535156 -34.62335968017578,200.9050750732422 -10.590971946716309,198.3855743408203 C9.934037208557129,173.84019470214844 -1.7540674209594727,137.62362670898438 107.80876159667969,118.26648712158203 C179.38369750976562,102.61012268066406 181.5643768310547,33.82564926147461 195.69277954101562,-43.69278335571289 C201.60205078125,-75.60511779785156 210.99722290039062,-103.34667205810547 210.68052673339844,-137.38446044921875 C210.5046844482422,-157.07102966308594 201.6646270751953,-198.57269287109375 200,-200 C199.99899291992188,-200.00100708007812 -198.7932586669922,-199.1537628173828 -200.06300354003906,-200z"/><path fill="rgb(120,120,120)" fill-opacity="1" d=" M-200.06300354003906,-200 C-201.2788848876953,-190.32020568847656 -198.02719116210938,-175.54348754882812 -194.61563110351562,-154.99256896972656 C-191.20407104492188,-134.441650390625 -187.6326141357422,-108.11636352539062 -188.20712280273438,-75.33824157714844 C-188.54470825195312,-52.28974533081055 -189.9903564453125,-26.549150466918945 -189.0668487548828,0.73441082239151 C-188.1433563232422,28.017972946166992 -184.8518524169922,56.843658447265625 -175.71315002441406,86.0641860961914 C-171.60934448242188,98.34648895263672 -165.40805053710938,110.70976257324219 -157.72422790527344,122.41254425048828 C-150.0404052734375,134.11532592773438 -140.87307739257812,145.15960693359375 -130.84019470214844,154.8016815185547 C-118.20298767089844,167.81961059570312 -95.59312438964844,166.9284210205078 -72.99380493164062,171.36830139160156 C-53.38157272338867,175.22132873535156 -34.62335968017578,200.9050750732422 -10.590971946716309,198.3855743408203 C9.934037208557129,173.84019470214844 -1.7540674209594727,137.62362670898438 107.80876159667969,118.26648712158203 C179.38369750976562,102.61012268066406 181.5643768310547,33.82564926147461 195.69277954101562,-43.69278335571289 C201.60205078125,-75.60511779785156 210.99722290039062,-103.34667205810547 210.68052673339844,-137.38446044921875 C210.5046844482422,-157.07102966308594 201.6646270751953,-198.57269287109375 200,-200 C199.99899291992188,-200.00100708007812 -198.7932586669922,-199.1537628173828 -200.06300354003906,-200z"/><path fill="rgb(255,255,255)" fill-opacity="1" d=" M-200.06300354003906,-200 C-201.2788848876953,-190.32020568847656 -198.02719116210938,-175.54348754882812 -194.61563110351562,-154.99256896972656 C-191.20407104492188,-134.441650390625 -187.6326141357422,-108.11636352539062 -188.20712280273438,-75.33824157714844 C-188.54470825195312,-52.28974533081055 -189.9903564453125,-26.549150466918945 -189.0668487548828,0.73441082239151 C-188.1433563232422,28.017972946166992 -184.8518524169922,56.843658447265625 -175.71315002441406,86.0641860961914 C-171.60934448242188,98.34648895263672 -165.40805053710938,110.70976257324219 -157.72422790527344,122.41254425048828 C-150.0404052734375,134.11532592773438 -140.87307739257812,145.15960693359375 -130.84019470214844,154.8016815185547 C-118.20298767089844,167.81961059570312 -95.59312438964844,166.9284210205078 -72.99380493164062,171.36830139160156 C-53.38157272338867,175.22132873535156 -34.62335968017578,200.9050750732422 -10.590971946716309,198.3855743408203 C9.934037208557129,173.84019470214844 -1.7540674209594727,137.62362670898438 107.80876159667969,118.26648712158203 C179.38369750976562,102.61012268066406 181.5643768310547,33.82564926147461 195.69277954101562,-43.69278335571289 C201.60205078125,-75.60511779785156 210.99722290039062,-103.34667205810547 210.68052673339844,-137.38446044921875 C210.5046844482422,-157.07102966308594 201.6646270751953,-198.57269287109375 200,-200 C199.99899291992188,-200.00100708007812 -198.7932586669922,-199.1537628173828 -200.06300354003906,-200z"/></g></g><g style="display: block;" transform="matrix(0.5424314737319946,0.007496776059269905,-0.006886690389364958,0.4982885420322418,115.28602600097656,78.77190399169922)" opacity="1"><g opacity="1" transform="matrix(1,0,0,1,256.09600830078125,315.9800109863281)"><path fill="rgb(0,0,0)" fill-opacity="1" d=" M-201.9250030517578,-48.22800064086914 C-201.9250030517578,-48.22800064086914 -201.9250030517578,-49.196998596191406 -201.9250030517578,-49.196998596191406 C-201.65499877929688,-49.249000549316406 -201.68299865722656,-49.465999603271484 -201.67100524902344,-49.659000396728516 C-201.5850067138672,-51.051998138427734 -201.60400390625,-52.444000244140625 -201.4980010986328,-53.84299850463867 C-201.23500061035156,-57.323001861572266 -200.93499755859375,-60.790000915527344 -200.48199462890625,-64.25199890136719 C-200.0489959716797,-67.56300354003906 -199.55999755859375,-70.86100006103516 -199.04600524902344,-74.15899658203125 C-198.57899475097656,-77.15599822998047 -197.91400146484375,-80.11900329589844 -197.1739959716797,-83.03600311279297 C-196.3820037841797,-86.16300201416016 -195.67599487304688,-89.322998046875 -194.70399475097656,-92.41500091552734 C-193.7790069580078,-95.36199951171875 -192.8990020751953,-98.33000183105469 -191.86700439453125,-101.23699951171875 C-190.66299438476562,-104.63099670410156 -189.26199340820312,-107.96199798583984 -187.802001953125,-111.25599670410156 C-185.8560028076172,-115.64800262451172 -183.76400756835938,-119.9800033569336 -181.31300354003906,-124.11599731445312 C-177.92999267578125,-129.82400512695312 -174.43600463867188,-135.46499633789062 -170.1840057373047,-140.58999633789062 C-168.08900451660156,-143.11500549316406 -166.13499450683594,-145.77699279785156 -163.86500549316406,-148.13400268554688 C-159.99000549316406,-152.15899658203125 -156.05799865722656,-156.12899780273438 -151.6929931640625,-159.66299438476562 C-148.31300354003906,-162.3990020751953 -144.7989959716797,-164.93299865722656 -141.2259979248047,-167.38900756835938 C-139.0500030517578,-168.88499450683594 -136.7530059814453,-170.2100067138672 -134.47000122070312,-171.54200744628906 C-131.83700561523438,-173.07699584960938 -129.1269989013672,-174.46299743652344 -126.3550033569336,-175.74200439453125 C-124.24500274658203,-176.71499633789062 -122.16600036621094,-177.7729949951172 -119.98899841308594,-178.56900024414062 C-115.64800262451172,-180.1540069580078 -111.31400299072266,-181.75100708007812 -106.79399871826172,-182.82000732421875 C-103.2490005493164,-183.65899658203125 -99.7300033569336,-184.5850067138672 -96.12899780273438,-185.1820068359375 C-91.84600067138672,-185.89199829101562 -87.5260009765625,-186.21400451660156 -83.20899963378906,-186.59100341796875 C-76.26499938964844,-187.19700622558594 -69.38600158691406,-186.42100524902344 -62.564998626708984,-185.302001953125 C-58.5099983215332,-184.63699340820312 -54.47600173950195,-183.6280059814453 -50.560001373291016,-182.37600708007812 C-45.4370002746582,-180.73800659179688 -40.33700180053711,-179.01400756835938 -35.32400131225586,-177.01400756835938 C-30.882999420166016,-175.2429962158203 -26.45400047302246,-173.427001953125 -21.979000091552734,-171.73300170898438 C-17.231000900268555,-169.93499755859375 -12.541999816894531,-167.9949951171875 -7.5980000495910645,-166.75999450683594 C-5.186999797821045,-166.1580047607422 -2.7699999809265137,-165.4929962158203 -0.3100000023841858,-165.3090057373047 C5.5279998779296875,-164.87399291992188 11.20199966430664,-165.86000061035156 16.753000259399414,-167.69900512695312 C21.7450008392334,-169.3520050048828 26.65999984741211,-171.21800231933594 31.55299949645996,-173.1269989013672 C37.73099899291992,-175.53900146484375 43.85200119018555,-178.1020050048828 50.14099884033203,-180.21600341796875 C54.95399856567383,-181.8350067138672 59.736000061035156,-183.5800018310547 64.72599792480469,-184.60000610351562 C67.60600280761719,-185.18899536132812 70.45600128173828,-185.8990020751953 73.36000061035156,-186.39300537109375 C77.52799987792969,-187.10299682617188 81.69300079345703,-187.72999572753906 85.927001953125,-187.802001953125 C86.73400115966797,-187.81500244140625 87.5780029296875,-187.6580047607422 88.34200286865234,-187.8419952392578 C90.02300262451172,-188.24600219726562 91.72699737548828,-188.14999389648438 93.37300109863281,-187.9810028076172 C96.12300109863281,-187.69700622558594 98.88899993896484,-187.96499633789062 101.625,-187.5659942626953 C102.08999633789062,-187.4980010986328 102.52300262451172,-188.0449981689453 102.98899841308594,-187.73599243164062 C103.94100189208984,-187.10400390625 105.05500030517578,-187.19500732421875 106.08200073242188,-187.11599731445312 C108.41400146484375,-186.93699645996094 110.76200103759766,-186.68299865722656 113.0250015258789,-186.25399780273438 C115.96700286865234,-185.69500732421875 118.9229965209961,-185.125 121.8499984741211,-184.44000244140625 C126.62999725341797,-183.3209991455078 131.31300354003906,-181.90199279785156 135.92599487304688,-180.2480010986328 C140.78599548339844,-178.5050048828125 145.42599487304688,-176.24899291992188 150.00599670410156,-173.88499450683594 C154.43800354003906,-171.59800720214844 158.60499572753906,-168.87100219726562 162.66000366210938,-165.95700073242188 C168.6009979248047,-161.68800354003906 173.97900390625,-156.8000030517578 178.96200561523438,-151.46600341796875 C182.3509979248047,-147.83799743652344 185.36599731445312,-143.8990020751953 188.35699462890625,-139.93899536132812 C189.06399536132812,-139.0030059814453 188.8719940185547,-138.5800018310547 187.94900512695312,-138 C182.031005859375,-134.2830047607422 176.54800415039062,-129.968994140625 171.38900756835938,-125.27999877929688 C167.5030059814453,-121.7490005493164 163.91900634765625,-117.89299774169922 160.55599975585938,-113.83799743652344 C155.2899932861328,-107.48699951171875 150.71099853515625,-100.68199920654297 146.92100524902344,-93.36000061035156 C144.56199645996094,-88.8030014038086 142.58999633789062,-84.05999755859375 140.9510040283203,-79.20099639892578 C139.75399780273438,-75.65299987792969 138.8090057373047,-72.02100372314453 137.97999572753906,-68.36000061035156 C137.1719970703125,-64.79100036621094 136.66099548339844,-61.17499923706055 136.07899475097656,-57.56999969482422 C135.61000061035156,-54.672000885009766 135.7429962158203,-51.724998474121094 135.4290008544922,-48.80500030517578 C135.26800537109375,-47.31100082397461 135.3730010986328,-45.7140007019043 135.4149932861328,-44.16400146484375 C135.49099731445312,-41.380001068115234 135.45599365234375,-38.59199905395508 135.61199951171875,-35.8129997253418 C135.7270050048828,-33.75199890136719 136.12100219726562,-31.70800018310547 136.3000030517578,-29.64900016784668 C136.51400756835938,-27.195999145507812 136.9770050048828,-24.788000106811523 137.48599243164062,-22.388999938964844 C138.0240020751953,-19.85300064086914 138.4810028076172,-17.316999435424805 139.32899475097656,-14.824999809265137 C139.8489990234375,-13.29699993133545 140.20199584960938,-11.597000122070312 140.68499755859375,-10.008999824523926 C142.4510040283203,-4.204999923706055 144.85899353027344,1.3450000286102295 147.7270050048828,6.691999912261963 C152.25599670410156,15.133000373840332 157.86099243164062,22.804000854492188 164.48500061035156,29.70800018310547 C166.40199279785156,31.70599937438965 168.25999450683594,33.768001556396484 170.5679931640625,35.42900085449219 C171.5919952392578,36.16699981689453 172.51100158691406,37.400001525878906 173.5540008544922,38.28300094604492 C181.8209991455078,45.27799987792969 190.8470001220703,51.09700012207031 200.70799255371094,55.606998443603516 C201.1020050048828,55.7869987487793 202.0279998779297,55.547000885009766 201.77699279785156,56.505001068115234 C201.6280059814453,57.07699966430664 201.91200256347656,57.71799850463867 201.50799560546875,58.22800064086914 C201.19700622558594,58.619998931884766 201.13900756835938,59.090999603271484 200.98899841308594,59.5369987487793 C200.177001953125,61.96200180053711 199.45799255371094,64.4260025024414 198.51300048828125,66.79900360107422 C196.5070037841797,71.83499908447266 194.61599731445312,76.91200256347656 192.39100646972656,81.86900329589844 C190.77099609375,85.47699737548828 189.2050018310547,89.11399841308594 187.46600341796875,92.66799926757812 C184.5399932861328,98.64800262451172 181.4969940185547,104.56999969482422 178.13699340820312,110.322998046875 C171.8489990234375,121.09200286865234 164.7270050048828,131.29200744628906 157.32000732421875,141.31500244140625 C151.61399841308594,149.03599548339844 145.8489990234375,156.68299865722656 138.99600219726562,163.44400024414062 C137.0760040283203,165.33900451660156 135.2220001220703,167.302001953125 133.2740020751953,169.16700744628906 C131.10400390625,171.24400329589844 128.73699951171875,173.093994140625 126.34100341796875,174.9040069580078 C121.625,178.46800231933594 116.50399780273438,181.31500244140625 111.05899810791016,183.60499572753906 C105.4530029296875,185.96299743652344 99.58100128173828,187.1999969482422 93.5469970703125,187.50599670410156 C88.9520034790039,187.73800659179688 84.34500122070312,187.63600158691406 79.7699966430664,186.84100341796875 C75.5780029296875,186.11199951171875 71.42500305175781,185.25599670410156 67.37699890136719,183.9409942626953 C62.097999572753906,182.2270050048828 57.042999267578125,179.94700622558594 51.959999084472656,177.7449951171875 C43.8129997253418,174.21499633789062 35.58100128173828,171.02099609375 26.742000579833984,169.5469970703125 C21.84600067138672,168.7310028076172 16.944000244140625,168.19500732421875 12.005000114440918,168.02999877929688 C7.639999866485596,167.88499450683594 3.2679998874664307,167.91700744628906 -1.0729999542236328,168.6300048828125 C-3.2149999141693115,168.9810028076172 -5.434000015258789,168.9499969482422 -7.531000137329102,169.45399475097656 C-10.9350004196167,170.27099609375 -14.378000259399414,170.90199279785156 -17.740999221801758,171.95799255371094 C-21.298999786376953,173.0760040283203 -24.781999588012695,174.38299560546875 -28.298999786376953,175.60000610351562 C-30.020000457763672,176.19500732421875 -31.63599967956543,177.1300048828125 -33.32699966430664,177.75999450683594 C-35.20800018310547,178.46200561523438 -36.98699951171875,179.38900756835938 -38.891998291015625,180.03900146484375 C-42.409000396728516,181.23899841308594 -45.70500183105469,183.03599548339844 -49.26499938964844,184.1320037841797 C-52.5989990234375,185.1580047607422 -55.935001373291016,186.156005859375 -59.367000579833984,186.88400268554688 C-63.457000732421875,187.7519989013672 -67.56099700927734,188.15499877929688 -71.70999908447266,188.19900512695312 C-76.18599700927734,188.24600219726562 -80.5979995727539,187.8520050048828 -85.00399780273438,186.802001953125 C-90.39800262451172,185.51699829101562 -95.18299865722656,182.97999572753906 -100.00599670410156,180.45399475097656 C-103.01100158691406,178.8800048828125 -105.48699951171875,176.52999877929688 -108.29000091552734,174.6540069580078 C-109.25900268554688,174.00599670410156 -110.1719970703125,173.25599670410156 -111.03099822998047,172.46600341796875 C-112.66600036621094,170.96400451660156 -114.25800323486328,169.4149932861328 -115.83999633789062,167.85800170898438 C-117.64900207519531,166.0780029296875 -119.47799682617188,164.31500244140625 -121.20600128173828,162.45799255371094 C-123.2490005493164,160.26199340820312 -125.27200317382812,158.03799438476562 -127.16200256347656,155.7100067138672 C-129.86000061035156,152.38800048828125 -132.5780029296875,149.08399963378906 -135.13299560546875,145.63999938964844 C-138.61700439453125,140.9429931640625 -142.156005859375,136.28700256347656 -145.54299926757812,131.51800537109375 C-148.36500549316406,127.54499816894531 -151.36500549316406,123.69599914550781 -153.96099853515625,119.56300354003906 C-155.38499450683594,117.29399871826172 -157.08700561523438,115.22100067138672 -158.28900146484375,112.78500366210938 C-159.83900451660156,109.64700317382812 -162.00900268554688,106.85800170898438 -163.64500427246094,103.74099731445312 C-164.50999450683594,102.09300231933594 -165.302001953125,100.39800262451172 -166.19400024414062,98.75800323486328 C-168.90699768066406,93.76899719238281 -171.36300659179688,88.64600372314453 -173.7899932861328,83.51000213623047 C-174.6999969482422,81.58399963378906 -175.677001953125,79.65899658203125 -176.5449981689453,77.74199676513672 C-177.17300415039062,76.35700225830078 -177.8679962158203,74.88700103759766 -178.35400390625,73.37699890136719 C-179.6009979248047,69.50199890136719 -181.30799865722656,65.7959976196289 -182.69400024414062,61.96500015258789 C-184.36099243164062,57.36000061035156 -185.98199462890625,52.7400016784668 -187.552001953125,48.104000091552734 C-188.6439971923828,44.875 -189.51499938964844,41.569000244140625 -190.4550018310547,38.28900146484375 C-191.38499450683594,35.04499816894531 -192.35899353027344,31.81100082397461 -193.1649932861328,28.535999298095703 C-194.27200317382812,24.038000106811523 -195.3040008544922,19.518999099731445 -196.2469940185547,14.984000205993652 C-197.0919952392578,10.916000366210938 -197.86500549316406,6.828000068664551 -198.5,2.7219998836517334 C-199.06900024414062,-0.9470000267028809 -199.59100341796875,-4.625999927520752 -200.03900146484375,-8.317000389099121 C-200.4709930419922,-11.869999885559082 -200.8350067138672,-15.430999755859375 -201.1540069580078,-18.989999771118164 C-201.46200561523438,-22.41699981689453 -201.7480010986328,-25.858999252319336 -201.70700073242188,-29.31100082397461 C-201.70399475097656,-29.562999725341797 -201.5709991455078,-29.891000747680664 -201.9250030517578,-30.054000854492188 C-201.9250030517578,-30.054000854492188 -201.9250030517578,-43.624000549316406 -201.9250030517578,-43.624000549316406 C-201.9250030517578,-44.09700012207031 -201.88999938964844,-44.571998596191406 -201.9320068359375,-45.04100036621094 C-202.0279998779297,-46.10499954223633 -201.40199279785156,-47.16600036621094 -201.9250030517578,-48.22800064086914z"/></g><g opacity="1" transform="matrix(1,0,0,1,305.0429992675781,65.3290023803711)"><path fill="rgb(0,0,0)" fill-opacity="1" d=" M49.56999969482422,-57.34199905395508 C49.810001373291016,-55.27000045776367 50.03499984741211,-53.202999114990234 50.4010009765625,-51.13999938964844 C50.625,-49.87799835205078 50.42100143432617,-48.45399856567383 50.402000427246094,-47.10300064086914 C50.388999938964844,-46.21500015258789 50.36000061035156,-45.32699966430664 50.34000015258789,-44.43899917602539 C50.33100128173828,-44.05099868774414 50.17900085449219,-43.630001068115234 50.60100173950195,-43.34000015258789 C50.79199981689453,-43.20899963378906 50.875999450683594,-42.92300033569336 50.762001037597656,-42.8120002746582 C49.45199966430664,-41.53200149536133 50.15700149536133,-39.82600021362305 49.89899826049805,-38.35100173950195 C49.608001708984375,-36.691001892089844 49.34299850463867,-34.97800064086914 49.32500076293945,-33.263999938964844 C49.32099914550781,-32.87300109863281 48.92900085449219,-32.43199920654297 49.472999572753906,-32.08700180053711 C49.55699920654297,-32.034000396728516 49.58599853515625,-31.684999465942383 49.53499984741211,-31.655000686645508 C48.30099868774414,-30.934999465942383 48.93299865722656,-29.663999557495117 48.65599822998047,-28.672000885009766 C47.84199905395508,-25.753999710083008 47.060001373291016,-22.826000213623047 46.3489990234375,-19.881999969482422 C45.861000061035156,-17.85700035095215 44.71699905395508,-15.994000434875488 44.47600173950195,-13.982000350952148 C44.27799987792969,-12.321000099182129 43.27299880981445,-11.090999603271484 42.849998474121094,-9.574000358581543 C42.49599838256836,-8.303999900817871 41.75,-6.952000141143799 41.19900131225586,-5.6579999923706055 C39.96500015258789,-2.7639999389648438 38.35200119018555,-0.06199999898672104 37.108001708984375,2.8299999237060547 C36.49700164794922,4.25 35.44499969482422,5.607999801635742 34.63100051879883,6.992000102996826 C32.685001373291016,10.303000450134277 30.281999588012695,13.289999961853027 28.2549991607666,16.525999069213867 C27.31399917602539,18.027999877929688 25.81599998474121,19.055999755859375 25.069000244140625,20.621000289916992 C24.579999923706055,21.64900016784668 23.83799934387207,22.770999908447266 23.138999938964844,23.214000701904297 C21.996000289916992,23.940000534057617 21.520000457763672,25.10300064086914 20.558000564575195,25.906999588012695 C18.490999221801758,27.634000778198242 16.593000411987305,29.590999603271484 14.798999786376953,31.608999252319336 C13.406999588012695,33.17499923706055 11.550999641418457,34.124000549316406 10.097999572753906,35.57099914550781 C8.338000297546387,37.323001861572266 6.25600004196167,38.68000030517578 4.25,40.08100128173828 C1.7660000324249268,41.814998626708984 -0.781000018119812,43.49300003051758 -3.446000099182129,44.974998474121094 C-6.510000228881836,46.678001403808594 -9.609999656677246,48.29199981689453 -12.782999992370605,49.78499984741211 C-14.845000267028809,50.75600051879883 -16.95400047302246,51.59000015258789 -19.073999404907227,52.40599822998047 C-22.285999298095703,53.641998291015625 -25.59000015258789,54.54600143432617 -28.924999237060547,55.40299987792969 C-31.04800033569336,55.94900131225586 -33.21099853515625,56.284000396728516 -35.3390007019043,56.69900131225586 C-38.62699890136719,57.34199905395508 -42.029998779296875,57.19300079345703 -45.39899826049805,57.07600021362305 C-46.71099853515625,57.029998779296875 -48.005001068115234,56.83000183105469 -49.3129997253418,56.7859992980957 C-50.0620002746582,56.76100158691406 -50.150001525878906,56.14799880981445 -50.244998931884766,55.62200164794922 C-50.847999572753906,52.26100158691406 -50.803001403808594,48.86800003051758 -50.83100128173828,45.46799850463867 C-50.875999450683594,40.124000549316406 -50.17399978637695,34.858001708984375 -48.97700119018555,29.697999954223633 C-47.79499816894531,24.604000091552734 -46.277000427246094,19.590999603271484 -44.374000549316406,14.682999610900879 C-42.24700164794922,9.199999809265137 -39.61399841308594,3.98799991607666 -36.77199935913086,-1.125 C-35.22999954223633,-3.8989999294281006 -33.527000427246094,-6.593999862670898 -31.69499969482422,-9.204999923706055 C-29.988000869750977,-11.637999534606934 -28.3439998626709,-14.119999885559082 -26.41900062561035,-16.381000518798828 C-23.13599967956543,-20.235000610351562 -19.95800018310547,-24.20599937438965 -16.141000747680664,-27.55699920654297 C-12.12600040435791,-31.082000732421875 -8.161999702453613,-34.69900131225586 -3.6640000343322754,-37.61600112915039 C-0.2630000114440918,-39.821998596191406 3.125,-42.04999923706055 6.6519999504089355,-44.07500076293945 C11.461000442504883,-46.83599853515625 16.475000381469727,-49.15299987792969 21.597999572753906,-51.18299865722656 C27.576000213623047,-53.551998138427734 33.763999938964844,-55.33399963378906 40.13999938964844,-56.36800003051758 C42.13800048828125,-56.69200134277344 44.12699890136719,-57.0629997253418 46.15800094604492,-57.117000579833984 C46.35200119018555,-57.12200164794922 46.56700134277344,-57.104000091552734 46.6619987487793,-57.34199905395508 C46.6619987487793,-57.34199905395508 49.56999969482422,-57.34199905395508 49.56999969482422,-57.34199905395508z"/></g></g><g style="display: none;" transform="matrix(-0.708688497543335,0.2517395317554474,-0.2517395317554474,-0.708688497543335,334.2315368652344,321.0432434082031)" opacity="0.00016000000000389037"><g opacity="1" transform="matrix(1,0,0,1,0,0)"><g opacity="0.15" transform="matrix(1,0,0,1,0,0)"><path fill="rgb(0,38,29)" fill-opacity="1" d=" M22.785999298095703,-67.0770034790039 C-66.47100067138672,-50.60499954223633 -145.3979949951172,5.359000205993652 -155.18099975585938,103.23200225830078 C-145.4010009765625,-10.291000366210938 -89.01799774169922,-46.5369987487793 22.785999298095703,-67.0770034790039z"/></g><g opacity="0.15" transform="matrix(1,0,0,1,0,0)"><path fill="rgb(0,38,29)" fill-opacity="1" d=" M22.785999298095703,-67.0770034790039 C-67.33799743652344,-47.33000183105469 -141.22000122070312,6.021999835968018 -155.18099975585938,103.23200225830078 C-145.24899291992188,-25.736000061035156 -94.59200286865234,-46.50199890136719 22.785999298095703,-67.0770034790039z"/></g><g opacity="0.15" transform="matrix(1,0,0,1,0,0)"><path fill="rgb(0,38,29)" fill-opacity="1" d=" M22.785999298095703,-67.0770034790039 C-65.85700225830078,-44.77799987792969 -138.63800048828125,8.159000396728516 -155.18099975585938,103.23200225830078 C-154.00100708007812,-33.89500045776367 -91.93699645996094,-46.60200119018555 22.785999298095703,-67.0770034790039z"/></g></g><g opacity="1" transform="matrix(1,0,0,1,0,0)"><g opacity="0.15" transform="matrix(1,0,0,1,0,0)"><path fill="rgb(206,239,255)" fill-opacity="1" d=" M-155.18099975585938,103.23200225830078 C-132.20899963378906,42.948001861572266 -100.51399993896484,-42.520999908447266 22.785999298095703,-67.0770034790039 C-68.31500244140625,-50.41999816894531 -144.8260040283203,3.7799999713897705 -155.18099975585938,103.23200225830078z"/></g><g opacity="0.15" transform="matrix(1,0,0,1,0,0)"><path fill="rgb(206,239,255)" fill-opacity="1" d=" M-155.18099975585938,103.23200225830078 C-128.93899536132812,56.65599822998047 -93.73999786376953,-44.516998291015625 22.785999298095703,-67.0770034790039 C-71.36799621582031,-53.1870002746582 -147.5850067138672,3.0959999561309814 -155.18099975585938,103.23200225830078z"/></g><g opacity="0.15" transform="matrix(1,0,0,1,0,0)"><path fill="rgb(206,239,255)" fill-opacity="1" d=" M-155.18099975585938,103.23200225830078 C-121.04499816894531,64.94300079345703 -99.55899810791016,-31.695999145507812 22.785999298095703,-67.0770034790039 C-71.36799621582031,-53.1870002746582 -147.5850067138672,3.0959999561309814 -155.18099975585938,103.23200225830078z"/></g></g></g><g style="display: none;" transform="matrix(-0.708688497543335,0.2517395317554474,-0.2517395317554474,-0.708688497543335,334.2325439453125,321.0440368652344)" opacity="0.00013333333333719112"><g opacity="1" transform="matrix(1,0,0,1,0,0)"><g opacity="0.15" transform="matrix(1,0,0,1,0,0)"><path fill="rgb(0,38,29)" fill-opacity="1" d=" M22.785999298095703,-67.0770034790039 C-66.47100067138672,-50.60499954223633 -145.3979949951172,5.359000205993652 -155.18099975585938,103.23200225830078 C-145.4010009765625,-10.291000366210938 -89.01799774169922,-46.5369987487793 22.785999298095703,-67.0770034790039z"/></g><g opacity="0.15" transform="matrix(1,0,0,1,0,0)"><path fill="rgb(0,38,29)" fill-opacity="1" d=" M22.785999298095703,-67.0770034790039 C-67.33799743652344,-47.33000183105469 -141.22000122070312,6.021999835968018 -155.18099975585938,103.23200225830078 C-145.24899291992188,-25.736000061035156 -94.59200286865234,-46.50199890136719 22.785999298095703,-67.0770034790039z"/></g><g opacity="0.15" transform="matrix(1,0,0,1,0,0)"><path fill="rgb(0,38,29)" fill-opacity="1" d=" M22.785999298095703,-67.0770034790039 C-65.85700225830078,-44.77799987792969 -138.63800048828125,8.159000396728516 -155.18099975585938,103.23200225830078 C-154.00100708007812,-33.89500045776367 -91.93699645996094,-46.60200119018555 22.785999298095703,-67.0770034790039z"/></g></g><g opacity="1" transform="matrix(1,0,0,1,0,0)"><g opacity="0.15" transform="matrix(1,0,0,1,0,0)"><path fill="rgb(206,239,255)" fill-opacity="1" d=" M-155.18099975585938,103.23200225830078 C-132.20899963378906,42.948001861572266 -100.51399993896484,-42.520999908447266 22.785999298095703,-67.0770034790039 C-68.31500244140625,-50.41999816894531 -144.8260040283203,3.7799999713897705 -155.18099975585938,103.23200225830078z"/></g><g opacity="0.15" transform="matrix(1,0,0,1,0,0)"><path fill="rgb(206,239,255)" fill-opacity="1" d=" M-155.18099975585938,103.23200225830078 C-128.93899536132812,56.65599822998047 -93.73999786376953,-44.516998291015625 22.785999298095703,-67.0770034790039 C-71.36799621582031,-53.1870002746582 -147.5850067138672,3.0959999561309814 -155.18099975585938,103.23200225830078z"/></g><g opacity="0.15" transform="matrix(1,0,0,1,0,0)"><path fill="rgb(206,239,255)" fill-opacity="1" d=" M-155.18099975585938,103.23200225830078 C-121.04499816894531,64.94300079345703 -99.55899810791016,-31.695999145507812 22.785999298095703,-67.0770034790039 C-71.36799621582031,-53.1870002746582 -147.5850067138672,3.0959999561309814 -155.18099975585938,103.23200225830078z"/></g></g></g><g style="display: block;" transform="matrix(-1.2005945444107056,0.5740952491760254,-0.5740952491760254,-1.2005945444107056,181.6676025390625,334.5871887207031)" opacity="0.9446444444444384"><g opacity="1" transform="matrix(1,0,0,1,0,0)"><g opacity="0.15" transform="matrix(1,0,0,1,0,0)"><path fill="rgb(0,38,29)" fill-opacity="1" d=" M22.785999298095703,-67.0770034790039 C-66.47100067138672,-50.60499954223633 -145.3979949951172,5.359000205993652 -155.18099975585938,103.23200225830078 C-145.4010009765625,-10.291000366210938 -89.01799774169922,-46.5369987487793 22.785999298095703,-67.0770034790039z"/></g><g opacity="0.15" transform="matrix(1,0,0,1,0,0)"><path fill="rgb(0,38,29)" fill-opacity="1" d=" M22.785999298095703,-67.0770034790039 C-67.33799743652344,-47.33000183105469 -141.22000122070312,6.021999835968018 -155.18099975585938,103.23200225830078 C-145.24899291992188,-25.736000061035156 -94.59200286865234,-46.50199890136719 22.785999298095703,-67.0770034790039z"/></g><g opacity="0.15" transform="matrix(1,0,0,1,0,0)"><path fill="rgb(0,38,29)" fill-opacity="1" d=" M22.785999298095703,-67.0770034790039 C-65.85700225830078,-44.77799987792969 -138.63800048828125,8.159000396728516 -155.18099975585938,103.23200225830078 C-154.00100708007812,-33.89500045776367 -91.93699645996094,-46.60200119018555 22.785999298095703,-67.0770034790039z"/></g></g><g opacity="1" transform="matrix(1,0,0,1,0,0)"><g opacity="0.15" transform="matrix(1,0,0,1,0,0)"><path fill="rgb(206,239,255)" fill-opacity="1" d=" M-155.18099975585938,103.23200225830078 C-132.20899963378906,42.948001861572266 -100.51399993896484,-42.520999908447266 22.785999298095703,-67.0770034790039 C-68.31500244140625,-50.41999816894531 -144.8260040283203,3.7799999713897705 -155.18099975585938,103.23200225830078z"/></g><g opacity="0.15" transform="matrix(1,0,0,1,0,0)"><path fill="rgb(206,239,255)" fill-opacity="1" d=" M-155.18099975585938,103.23200225830078 C-128.93899536132812,56.65599822998047 -93.73999786376953,-44.516998291015625 22.785999298095703,-67.0770034790039 C-71.36799621582031,-53.1870002746582 -147.5850067138672,3.0959999561309814 -155.18099975585938,103.23200225830078z"/></g><g opacity="0.15" transform="matrix(1,0,0,1,0,0)"><path fill="rgb(206,239,255)" fill-opacity="1" d=" M-155.18099975585938,103.23200225830078 C-121.04499816894531,64.94300079345703 -99.55899810791016,-31.695999145507812 22.785999298095703,-67.0770034790039 C-71.36799621582031,-53.1870002746582 -147.5850067138672,3.0959999561309814 -155.18099975585938,103.23200225830078z"/></g></g></g><g style="display: none;" transform="matrix(1.0935108661651611,-0.446053147315979,0.446053147315979,1.0935108661651611,270.67156982421875,242.17506408691406)" opacity="0.044012499999944055"><g opacity="1" transform="matrix(1,0,0,1,0,0)"><g opacity="0.15" transform="matrix(1,0,0,1,0,0)"><path fill="rgb(0,38,29)" fill-opacity="1" d=" M-155.18099975585938,103.23200225830078 C-130.0959930419922,82.83599853515625 -84.73899841308594,-45.534000396728516 38.56100082397461,-70.08999633789062 C-52.540000915527344,-53.43299865722656 -144.8260040283203,3.7799999713897705 -155.18099975585938,103.23200225830078z"/></g><g opacity="0.15" transform="matrix(1,0,0,1,0,0)"><path fill="rgb(0,38,29)" fill-opacity="1" d=" M-155.18099975585938,103.23200225830078 C-117.25900268554688,79.94200134277344 -77.96499633789062,-47.529998779296875 38.56100082397461,-70.08999633789062 C-55.59299850463867,-56.20000076293945 -147.5850067138672,3.0959999561309814 -155.18099975585938,103.23200225830078z"/></g><g opacity="0.15" transform="matrix(1,0,0,1,0,0)"><path fill="rgb(0,38,29)" fill-opacity="1" d=" M-155.18099975585938,103.23200225830078 C-108.75900268554688,94.16100311279297 -83.78399658203125,-34.70899963378906 38.56100082397461,-70.08999633789062 C-55.59299850463867,-56.20000076293945 -147.5850067138672,3.0959999561309814 -155.18099975585938,103.23200225830078z"/></g></g><g opacity="1" transform="matrix(1,0,0,1,0,0)"><g opacity="0.15" transform="matrix(1,0,0,1,0,0)"><path fill="rgb(206,239,255)" fill-opacity="1" d=" M38.56100082397461,-70.08999633789062 C-50.69499969482422,-53.61800003051758 -145.3979949951172,5.359000205993652 -155.18099975585938,103.23200225830078 C-148.59800720214844,-3.4690001010894775 -73.24299621582031,-49.54999923706055 38.56100082397461,-70.08999633789062z"/></g><g opacity="0.15" transform="matrix(1,0,0,1,0,0)"><path fill="rgb(206,239,255)" fill-opacity="1" d=" M38.56100082397461,-70.08999633789062 C-51.5629997253418,-50.34299850463867 -141.22000122070312,6.021999835968018 -155.18099975585938,103.23200225830078 C-152.3780059814453,-8.973999977111816 -78.81700134277344,-49.51499938964844 38.56100082397461,-70.08999633789062z"/></g><g opacity="0.15" transform="matrix(1,0,0,1,0,0)"><path fill="rgb(206,239,255)" fill-opacity="1" d=" M38.56100082397461,-70.08999633789062 C-50.082000732421875,-47.79100036621094 -138.63800048828125,8.159000396728516 -155.18099975585938,103.23200225830078 C-161.78199768066406,-12.746999740600586 -76.16200256347656,-49.6150016784668 38.56100082397461,-70.08999633789062z"/></g></g></g><g style="display: none;" transform="matrix(-0.7706547975540161,0.18581467866897583,-0.18581467866897583,-0.7706547975540161,325.7040100097656,362.567138671875)" opacity="0.033533333333290755"><g opacity="1" transform="matrix(1,0,0,1,0,0)"><g opacity="0.15" transform="matrix(1,0,0,1,0,0)"><path fill="rgb(0,38,29)" fill-opacity="1" d=" M22.785999298095703,-67.0770034790039 C-66.47100067138672,-50.60499954223633 -145.3979949951172,5.359000205993652 -155.18099975585938,103.23200225830078 C-145.4010009765625,-10.291000366210938 -89.01799774169922,-46.5369987487793 22.785999298095703,-67.0770034790039z"/></g><g opacity="0.15" transform="matrix(1,0,0,1,0,0)"><path fill="rgb(0,38,29)" fill-opacity="1" d=" M22.785999298095703,-67.0770034790039 C-67.33799743652344,-47.33000183105469 -141.22000122070312,6.021999835968018 -155.18099975585938,103.23200225830078 C-145.24899291992188,-25.736000061035156 -94.59200286865234,-46.50199890136719 22.785999298095703,-67.0770034790039z"/></g><g opacity="0.15" transform="matrix(1,0,0,1,0,0)"><path fill="rgb(0,38,29)" fill-opacity="1" d=" M22.785999298095703,-67.0770034790039 C-65.85700225830078,-44.77799987792969 -138.63800048828125,8.159000396728516 -155.18099975585938,103.23200225830078 C-154.00100708007812,-33.89500045776367 -91.93699645996094,-46.60200119018555 22.785999298095703,-67.0770034790039z"/></g></g><g opacity="1" transform="matrix(1,0,0,1,0,0)"><g opacity="0.15" transform="matrix(1,0,0,1,0,0)"><path fill="rgb(206,239,255)" fill-opacity="1" d=" M-155.18099975585938,103.23200225830078 C-132.20899963378906,42.948001861572266 -100.51399993896484,-42.520999908447266 22.785999298095703,-67.0770034790039 C-68.31500244140625,-50.41999816894531 -144.8260040283203,3.7799999713897705 -155.18099975585938,103.23200225830078z"/></g><g opacity="0.15" transform="matrix(1,0,0,1,0,0)"><path fill="rgb(206,239,255)" fill-opacity="1" d=" M-155.18099975585938,103.23200225830078 C-128.93899536132812,56.65599822998047 -93.73999786376953,-44.516998291015625 22.785999298095703,-67.0770034790039 C-71.36799621582031,-53.1870002746582 -147.5850067138672,3.0959999561309814 -155.18099975585938,103.23200225830078z"/></g><g opacity="0.15" transform="matrix(1,0,0,1,0,0)"><path fill="rgb(206,239,255)" fill-opacity="1" d=" M-155.18099975585938,103.23200225830078 C-121.04499816894531,64.94300079345703 -99.55899810791016,-31.695999145507812 22.785999298095703,-67.0770034790039 C-71.36799621582031,-53.1870002746582 -147.5850067138672,3.0959999561309814 -155.18099975585938,103.23200225830078z"/></g></g></g></g></g></svg>