<svg xmlns="http://www.w3.org/2000/svg" xmlns:xlink="http://www.w3.org/1999/xlink" viewBox="0 0 512 512" width="512" height="512" style="width: 100%; height: 100%; transform: translate3d(0px, 0px, 0px); content-visibility: visible;" preserveAspectRatio="xMidYMid meet"><defs><clipPath id="__lottie_element_2"><rect width="512" height="512" x="0" y="0"/></clipPath><clipPath id="__lottie_element_4"><path d="M0,0 L512,0 L512,512 L0,512z"/></clipPath></defs><g clip-path="url(#__lottie_element_2)"><g clip-path="url(#__lottie_element_4)" style="display: block;" transform="matrix(1,0,0,1,0,0)" opacity="1"><g style="display: block;" transform="matrix(0.949999988079071,0,0,0.949999988079071,253.0050048828125,255.114013671875)" opacity="1"><g opacity="1" transform="matrix(1,0,0,1,0,0)"><path stroke-linecap="round" stroke-linejoin="round" fill-opacity="0" stroke="rgb(0,14,186)" stroke-opacity="1" stroke-width="5" d=" M-200.06300354003906,-200.031005859375 C-199.55274963378906,-163.2607421875 -199.15126037597656,-130.4788818359375 -198.67599487304688,-101.17963409423828 C-198.20071411132812,-71.88038635253906 -197.6506805419922,-46.06278991699219 -196.8452911376953,-23.220117568969727 C-196.0399169921875,-0.3774470090866089 -194.97921752929688,19.491281509399414 -193.47964477539062,36.89179611206055 C-191.6794891357422,59.684844970703125 -189.29791259765625,78.36195373535156 -185.37730407714844,94.0914077758789 C-181.4567108154297,109.82085418701172 -175.99609375,122.6016616821289 -168.03695678710938,133.60308837890625 C-154.75762939453125,152.01608276367188 -135.70187377929688,165.07479858398438 -108.26637268066406,178.60401916503906 C-80.83088684082031,192.13323974609375 -45.01568603515625,206.13397216796875 1.7825123071670532,226.4349822998047 C66.82424926757812,200.0507354736328 112.75995635986328,177.1378936767578 144.6971893310547,154.39537048339844 C176.63442993164062,131.65283203125 194.57415771484375,109.08062744140625 203.62200927734375,83.37467956542969 C214.60552978515625,52.12464141845703 212.89523315429688,14.88415241241455 208.8413543701172,-31.344547271728516 C204.7874755859375,-77.5732421875 198.3909454345703,-132.79312133789062 200,-200 C180,-200 89.98500061035156,-200.00799560546875 -0.03099999949336052,-200.01600646972656 C-90.0469970703125,-200.0240020751953 -180.06300354003906,-200.031005859375 -200.06300354003906,-200.031005859375z"/><path fill="rgb(232,232,232)" fill-opacity="1" d=" M-200.06300354003906,-200.031005859375 C-199.55274963378906,-163.2607421875 -199.15126037597656,-130.4788818359375 -198.67599487304688,-101.17963409423828 C-198.20071411132812,-71.88038635253906 -197.6506805419922,-46.06278991699219 -196.8452911376953,-23.220117568969727 C-196.0399169921875,-0.3774470090866089 -194.97921752929688,19.491281509399414 -193.47964477539062,36.89179611206055 C-191.6794891357422,59.684844970703125 -189.29791259765625,78.36195373535156 -185.37730407714844,94.0914077758789 C-181.4567108154297,109.82085418701172 -175.99609375,122.6016616821289 -168.03695678710938,133.60308837890625 C-154.75762939453125,152.01608276367188 -135.70187377929688,165.07479858398438 -108.26637268066406,178.60401916503906 C-80.83088684082031,192.13323974609375 -45.01568603515625,206.13397216796875 1.7825123071670532,226.4349822998047 C66.82424926757812,200.0507354736328 112.75995635986328,177.1378936767578 144.6971893310547,154.39537048339844 C176.63442993164062,131.65283203125 194.57415771484375,109.08062744140625 203.62200927734375,83.37467956542969 C214.60552978515625,52.12464141845703 212.89523315429688,14.88415241241455 208.8413543701172,-31.344547271728516 C204.7874755859375,-77.5732421875 198.3909454345703,-132.79312133789062 200,-200 C180,-200 89.98500061035156,-200.00799560546875 -0.03099999949336052,-200.01600646972656 C-90.0469970703125,-200.0240020751953 -180.06300354003906,-200.031005859375 -200.06300354003906,-200.031005859375z"/><path fill="rgb(120,120,120)" fill-opacity="1" d=" M-200.06300354003906,-200.031005859375 C-199.55274963378906,-163.2607421875 -199.15126037597656,-130.4788818359375 -198.67599487304688,-101.17963409423828 C-198.20071411132812,-71.88038635253906 -197.6506805419922,-46.06278991699219 -196.8452911376953,-23.220117568969727 C-196.0399169921875,-0.3774470090866089 -194.97921752929688,19.491281509399414 -193.47964477539062,36.89179611206055 C-191.6794891357422,59.684844970703125 -189.29791259765625,78.36195373535156 -185.37730407714844,94.0914077758789 C-181.4567108154297,109.82085418701172 -175.99609375,122.6016616821289 -168.03695678710938,133.60308837890625 C-154.75762939453125,152.01608276367188 -135.70187377929688,165.07479858398438 -108.26637268066406,178.60401916503906 C-80.83088684082031,192.13323974609375 -45.01568603515625,206.13397216796875 1.7825123071670532,226.4349822998047 C66.82424926757812,200.0507354736328 112.75995635986328,177.1378936767578 144.6971893310547,154.39537048339844 C176.63442993164062,131.65283203125 194.57415771484375,109.08062744140625 203.62200927734375,83.37467956542969 C214.60552978515625,52.12464141845703 212.89523315429688,14.88415241241455 208.8413543701172,-31.344547271728516 C204.7874755859375,-77.5732421875 198.3909454345703,-132.79312133789062 200,-200 C180,-200 89.98500061035156,-200.00799560546875 -0.03099999949336052,-200.01600646972656 C-90.0469970703125,-200.0240020751953 -180.06300354003906,-200.031005859375 -200.06300354003906,-200.031005859375z"/><path fill="rgb(255,255,255)" fill-opacity="1" d=" M-200.06300354003906,-200.031005859375 C-199.55274963378906,-163.2607421875 -199.15126037597656,-130.4788818359375 -198.67599487304688,-101.17963409423828 C-198.20071411132812,-71.88038635253906 -197.6506805419922,-46.06278991699219 -196.8452911376953,-23.220117568969727 C-196.0399169921875,-0.3774470090866089 -194.97921752929688,19.491281509399414 -193.47964477539062,36.89179611206055 C-191.6794891357422,59.684844970703125 -189.29791259765625,78.36195373535156 -185.37730407714844,94.0914077758789 C-181.4567108154297,109.82085418701172 -175.99609375,122.6016616821289 -168.03695678710938,133.60308837890625 C-154.75762939453125,152.01608276367188 -135.70187377929688,165.07479858398438 -108.26637268066406,178.60401916503906 C-80.83088684082031,192.13323974609375 -45.01568603515625,206.13397216796875 1.7825123071670532,226.4349822998047 C66.82424926757812,200.0507354736328 112.75995635986328,177.1378936767578 144.6971893310547,154.39537048339844 C176.63442993164062,131.65283203125 194.57415771484375,109.08062744140625 203.62200927734375,83.37467956542969 C214.60552978515625,52.12464141845703 212.89523315429688,14.88415241241455 208.8413543701172,-31.344547271728516 C204.7874755859375,-77.5732421875 198.3909454345703,-132.79312133789062 200,-200 C180,-200 89.98500061035156,-200.00799560546875 -0.03099999949336052,-200.01600646972656 C-90.0469970703125,-200.0240020751953 -180.06300354003906,-200.031005859375 -200.06300354003906,-200.031005859375z"/></g></g><g style="display: block;" transform="matrix(0.5501655340194702,-0.00699603883549571,0.00699603883549571,0.5501655340194702,118.63957214355469,100.2315673828125)" opacity="1"><g opacity="1" transform="matrix(1,0,0,1,156.24600219726562,159.76600646972656)"><path fill="rgb(243,83,37)" fill-opacity="1" d=" M88.91999816894531,0.12300000339746475 C88.91999816894531,28.941999435424805 88.89900207519531,57.762001037597656 88.96700286865234,86.58100128173828 C88.97200012207031,88.53900146484375 88.44400024414062,88.96600341796875 86.54199981689453,88.96399688720703 C28.836999893188477,88.91000366210938 -28.867000579833984,88.91100311279297 -86.5719985961914,88.96700286865234 C-88.51300048828125,88.96900177001953 -88.97000122070312,88.46800231933594 -88.96800231933594,86.5530014038086 C-88.91400146484375,28.847999572753906 -88.91400146484375,-28.85700035095215 -88.96900177001953,-86.56199645996094 C-88.97100067138672,-88.50700378417969 -88.45899963378906,-88.96900177001953 -86.54399871826172,-88.96700286865234 C-28.839000701904297,-88.91400146484375 28.864999771118164,-88.91400146484375 86.56999969482422,-88.96700286865234 C88.51300048828125,-88.96900177001953 88.96800231933594,-88.43599700927734 88.96399688720703,-86.53299713134766 C88.9010009765625,-57.64799880981445 88.91999816894531,-28.76300048828125 88.91999816894531,0.12300000339746475z"/></g><g opacity="1" transform="matrix(1,0,0,1,351.79901123046875,159.7689971923828)"><path fill="rgb(129,188,6)" fill-opacity="1" d=" M88.9219970703125,0.10899999737739563 C88.9219970703125,28.868999481201172 88.90399932861328,57.62799835205078 88.96299743652344,86.38800048828125 C88.96700286865234,88.31900024414062 88.61499786376953,88.9749984741211 86.48400115966797,88.9729995727539 C28.764999389648438,88.90499877929688 -28.954999923706055,88.90899658203125 -86.67400360107422,88.96099853515625 C-88.51799774169922,88.96199798583984 -88.96700286865234,88.4739990234375 -88.96499633789062,86.65499877929688 C-88.91600036621094,28.868999481201172 -88.91500091552734,-28.91699981689453 -88.97100067138672,-86.7020034790039 C-88.9729995727539,-88.6240005493164 -88.36100006103516,-88.96499633789062 -86.61399841308594,-88.96399688720703 C-28.895000457763672,-88.9219970703125 28.823999404907227,-88.91999816894531 86.54299926757812,-88.9729995727539 C88.45700073242188,-88.9749984741211 88.9729995727539,-88.51699829101562 88.96800231933594,-86.56900024414062 C88.9010009765625,-57.676998138427734 88.9219970703125,-28.784000396728516 88.9219970703125,0.10899999737739563z"/></g><g opacity="1" transform="matrix(1,0,0,1,156.2469940185547,355.28900146484375)"><path fill="rgb(5,166,240)" fill-opacity="1" d=" M0.10899999737739563,88.947998046875 C-28.716999053955078,88.947998046875 -57.542999267578125,88.947998046875 -86.37000274658203,88.947998046875 C-88.9209976196289,88.947998046875 -88.9229965209961,88.94599914550781 -88.9229965209961,86.35299682617188 C-88.9229965209961,28.76799964904785 -88.91300201416016,-28.81800079345703 -88.96600341796875,-86.40399932861328 C-88.96800231933594,-88.36499786376953 -88.56800079345703,-88.9489974975586 -86.48500061035156,-88.9469985961914 C-28.83300018310547,-88.88200378417969 28.81999969482422,-88.88200378417969 86.47200012207031,-88.94499969482422 C88.5199966430664,-88.9469985961914 88.96800231933594,-88.41799926757812 88.96600341796875,-86.4219970703125 C88.90899658203125,-28.836000442504883 88.91999816894531,28.75 88.91899871826172,86.33599853515625 C88.91899871826172,88.94599914550781 88.91799926757812,88.947998046875 86.38800048828125,88.947998046875 C57.62799835205078,88.947998046875 28.868999481201172,88.947998046875 0.10899999737739563,88.947998046875z"/></g><g opacity="1" transform="matrix(1,0,0,1,351.7850036621094,355.3139953613281)"><path fill="rgb(255,186,8)" fill-opacity="1" d=" M-0.11999999731779099,88.91899871826172 C-28.87700080871582,88.91899871826172 -57.63399887084961,88.9010009765625 -86.38999938964844,88.95899963378906 C-88.30899810791016,88.96299743652344 -88.97100067138672,88.62899780273438 -88.96800231933594,86.49500274658203 C-88.9000015258789,28.781999588012695 -88.90499877929688,-28.930999755859375 -88.9520034790039,-86.6449966430664 C-88.9540023803711,-88.4489974975586 -88.5260009765625,-88.96399688720703 -86.66600036621094,-88.96199798583984 C-28.88599967956543,-88.91000366210938 28.893999099731445,-88.90899658203125 86.67400360107422,-88.96499633789062 C88.59300231933594,-88.96700286865234 88.96099853515625,-88.36100006103516 88.95999908447266,-86.59600067138672 C88.91799926757812,-28.882999420166016 88.91500091552734,28.83099937438965 88.96900177001953,86.54399871826172 C88.97100067138672,88.4749984741211 88.4800033569336,88.96800231933594 86.55000305175781,88.96399688720703 C57.65999984741211,88.89900207519531 28.770000457763672,88.91899871826172 -0.11999999731779099,88.91899871826172z"/></g></g><g style="display: none;" transform="matrix(1.0678908824920654,-0.19197073578834534,0.19197073578834534,1.0678908824920654,407.0810241699219,340.6984558105469)" opacity="0.1056336842104794"><g opacity="1" transform="matrix(1,0,0,1,0,0)"><g opacity="0.15" transform="matrix(1,0,0,1,0,0)"><path fill="rgb(0,38,29)" fill-opacity="1" d=" M-155.18099975585938,103.23200225830078 C-130.0959930419922,82.83599853515625 -84.73899841308594,-45.534000396728516 38.56100082397461,-70.08999633789062 C-52.540000915527344,-53.43299865722656 -144.8260040283203,3.7799999713897705 -155.18099975585938,103.23200225830078z"/></g><g opacity="0.15" transform="matrix(1,0,0,1,0,0)"><path fill="rgb(0,38,29)" fill-opacity="1" d=" M-155.18099975585938,103.23200225830078 C-117.25900268554688,79.94200134277344 -77.96499633789062,-47.529998779296875 38.56100082397461,-70.08999633789062 C-55.59299850463867,-56.20000076293945 -147.5850067138672,3.0959999561309814 -155.18099975585938,103.23200225830078z"/></g><g opacity="0.15" transform="matrix(1,0,0,1,0,0)"><path fill="rgb(0,38,29)" fill-opacity="1" d=" M-155.18099975585938,103.23200225830078 C-108.75900268554688,94.16100311279297 -83.78399658203125,-34.70899963378906 38.56100082397461,-70.08999633789062 C-55.59299850463867,-56.20000076293945 -147.5850067138672,3.0959999561309814 -155.18099975585938,103.23200225830078z"/></g></g><g opacity="1" transform="matrix(1,0,0,1,0,0)"><g opacity="0.15" transform="matrix(1,0,0,1,0,0)"><path fill="rgb(206,239,255)" fill-opacity="1" d=" M38.56100082397461,-70.08999633789062 C-50.69499969482422,-53.61800003051758 -145.3979949951172,5.359000205993652 -155.18099975585938,103.23200225830078 C-148.59800720214844,-3.4690001010894775 -73.24299621582031,-49.54999923706055 38.56100082397461,-70.08999633789062z"/></g><g opacity="0.15" transform="matrix(1,0,0,1,0,0)"><path fill="rgb(206,239,255)" fill-opacity="1" d=" M38.56100082397461,-70.08999633789062 C-51.5629997253418,-50.34299850463867 -141.22000122070312,6.021999835968018 -155.18099975585938,103.23200225830078 C-152.3780059814453,-8.973999977111816 -78.81700134277344,-49.51499938964844 38.56100082397461,-70.08999633789062z"/></g><g opacity="0.15" transform="matrix(1,0,0,1,0,0)"><path fill="rgb(206,239,255)" fill-opacity="1" d=" M38.56100082397461,-70.08999633789062 C-50.082000732421875,-47.79100036621094 -138.63800048828125,8.159000396728516 -155.18099975585938,103.23200225830078 C-161.78199768066406,-12.746999740600586 -76.16200256347656,-49.6150016784668 38.56100082397461,-70.08999633789062z"/></g></g></g><g style="display: none;" transform="matrix(-0.7891015410423279,0.28030380606651306,-0.28030380606651306,-0.7891015410423279,317.61798095703125,328.207763671875)" opacity="0.12550000000000025"><g opacity="1" transform="matrix(1,0,0,1,0,0)"><g opacity="0.15" transform="matrix(1,0,0,1,0,0)"><path fill="rgb(0,38,29)" fill-opacity="1" d=" M22.785999298095703,-67.0770034790039 C-66.47100067138672,-50.60499954223633 -145.3979949951172,5.359000205993652 -155.18099975585938,103.23200225830078 C-145.4010009765625,-10.291000366210938 -89.01799774169922,-46.5369987487793 22.785999298095703,-67.0770034790039z"/></g><g opacity="0.15" transform="matrix(1,0,0,1,0,0)"><path fill="rgb(0,38,29)" fill-opacity="1" d=" M22.785999298095703,-67.0770034790039 C-67.33799743652344,-47.33000183105469 -141.22000122070312,6.021999835968018 -155.18099975585938,103.23200225830078 C-145.24899291992188,-25.736000061035156 -94.59200286865234,-46.50199890136719 22.785999298095703,-67.0770034790039z"/></g><g opacity="0.15" transform="matrix(1,0,0,1,0,0)"><path fill="rgb(0,38,29)" fill-opacity="1" d=" M22.785999298095703,-67.0770034790039 C-65.85700225830078,-44.77799987792969 -138.63800048828125,8.159000396728516 -155.18099975585938,103.23200225830078 C-154.00100708007812,-33.89500045776367 -91.93699645996094,-46.60200119018555 22.785999298095703,-67.0770034790039z"/></g></g><g opacity="1" transform="matrix(1,0,0,1,0,0)"><g opacity="0.15" transform="matrix(1,0,0,1,0,0)"><path fill="rgb(206,239,255)" fill-opacity="1" d=" M-155.18099975585938,103.23200225830078 C-132.20899963378906,42.948001861572266 -100.51399993896484,-42.520999908447266 22.785999298095703,-67.0770034790039 C-68.31500244140625,-50.41999816894531 -144.8260040283203,3.7799999713897705 -155.18099975585938,103.23200225830078z"/></g><g opacity="0.15" transform="matrix(1,0,0,1,0,0)"><path fill="rgb(206,239,255)" fill-opacity="1" d=" M-155.18099975585938,103.23200225830078 C-128.93899536132812,56.65599822998047 -93.73999786376953,-44.516998291015625 22.785999298095703,-67.0770034790039 C-71.36799621582031,-53.1870002746582 -147.5850067138672,3.0959999561309814 -155.18099975585938,103.23200225830078z"/></g><g opacity="0.15" transform="matrix(1,0,0,1,0,0)"><path fill="rgb(206,239,255)" fill-opacity="1" d=" M-155.18099975585938,103.23200225830078 C-121.04499816894531,64.94300079345703 -99.55899810791016,-31.695999145507812 22.785999298095703,-67.0770034790039 C-71.36799621582031,-53.1870002746582 -147.5850067138672,3.0959999561309814 -155.18099975585938,103.23200225830078z"/></g></g></g><g style="display: none;" transform="matrix(-0.7891015410423279,0.28030380606651306,-0.28030380606651306,-0.7891015410423279,318.2256774902344,329.2424011230469)" opacity="0.10458333333333357"><g opacity="1" transform="matrix(1,0,0,1,0,0)"><g opacity="0.15" transform="matrix(1,0,0,1,0,0)"><path fill="rgb(0,38,29)" fill-opacity="1" d=" M22.785999298095703,-67.0770034790039 C-66.47100067138672,-50.60499954223633 -145.3979949951172,5.359000205993652 -155.18099975585938,103.23200225830078 C-145.4010009765625,-10.291000366210938 -89.01799774169922,-46.5369987487793 22.785999298095703,-67.0770034790039z"/></g><g opacity="0.15" transform="matrix(1,0,0,1,0,0)"><path fill="rgb(0,38,29)" fill-opacity="1" d=" M22.785999298095703,-67.0770034790039 C-67.33799743652344,-47.33000183105469 -141.22000122070312,6.021999835968018 -155.18099975585938,103.23200225830078 C-145.24899291992188,-25.736000061035156 -94.59200286865234,-46.50199890136719 22.785999298095703,-67.0770034790039z"/></g><g opacity="0.15" transform="matrix(1,0,0,1,0,0)"><path fill="rgb(0,38,29)" fill-opacity="1" d=" M22.785999298095703,-67.0770034790039 C-65.85700225830078,-44.77799987792969 -138.63800048828125,8.159000396728516 -155.18099975585938,103.23200225830078 C-154.00100708007812,-33.89500045776367 -91.93699645996094,-46.60200119018555 22.785999298095703,-67.0770034790039z"/></g></g><g opacity="1" transform="matrix(1,0,0,1,0,0)"><g opacity="0.15" transform="matrix(1,0,0,1,0,0)"><path fill="rgb(206,239,255)" fill-opacity="1" d=" M-155.18099975585938,103.23200225830078 C-132.20899963378906,42.948001861572266 -100.51399993896484,-42.520999908447266 22.785999298095703,-67.0770034790039 C-68.31500244140625,-50.41999816894531 -144.8260040283203,3.7799999713897705 -155.18099975585938,103.23200225830078z"/></g><g opacity="0.15" transform="matrix(1,0,0,1,0,0)"><path fill="rgb(206,239,255)" fill-opacity="1" d=" M-155.18099975585938,103.23200225830078 C-128.93899536132812,56.65599822998047 -93.73999786376953,-44.516998291015625 22.785999298095703,-67.0770034790039 C-71.36799621582031,-53.1870002746582 -147.5850067138672,3.0959999561309814 -155.18099975585938,103.23200225830078z"/></g><g opacity="0.15" transform="matrix(1,0,0,1,0,0)"><path fill="rgb(206,239,255)" fill-opacity="1" d=" M-155.18099975585938,103.23200225830078 C-121.04499816894531,64.94300079345703 -99.55899810791016,-31.695999145507812 22.785999298095703,-67.0770034790039 C-71.36799621582031,-53.1870002746582 -147.5850067138672,3.0959999561309814 -155.18099975585938,103.23200225830078z"/></g></g></g><g style="display: none;" transform="matrix(-0.6941181421279907,0.33191052079200745,-0.33191052079200745,-0.6941181421279907,299.6529846191406,324.9192199707031)" opacity="0.028444444444386933"><g opacity="1" transform="matrix(1,0,0,1,0,0)"><g opacity="0.15" transform="matrix(1,0,0,1,0,0)"><path fill="rgb(0,38,29)" fill-opacity="1" d=" M22.785999298095703,-67.0770034790039 C-66.47100067138672,-50.60499954223633 -145.3979949951172,5.359000205993652 -155.18099975585938,103.23200225830078 C-145.4010009765625,-10.291000366210938 -89.01799774169922,-46.5369987487793 22.785999298095703,-67.0770034790039z"/></g><g opacity="0.15" transform="matrix(1,0,0,1,0,0)"><path fill="rgb(0,38,29)" fill-opacity="1" d=" M22.785999298095703,-67.0770034790039 C-67.33799743652344,-47.33000183105469 -141.22000122070312,6.021999835968018 -155.18099975585938,103.23200225830078 C-145.24899291992188,-25.736000061035156 -94.59200286865234,-46.50199890136719 22.785999298095703,-67.0770034790039z"/></g><g opacity="0.15" transform="matrix(1,0,0,1,0,0)"><path fill="rgb(0,38,29)" fill-opacity="1" d=" M22.785999298095703,-67.0770034790039 C-65.85700225830078,-44.77799987792969 -138.63800048828125,8.159000396728516 -155.18099975585938,103.23200225830078 C-154.00100708007812,-33.89500045776367 -91.93699645996094,-46.60200119018555 22.785999298095703,-67.0770034790039z"/></g></g><g opacity="1" transform="matrix(1,0,0,1,0,0)"><g opacity="0.15" transform="matrix(1,0,0,1,0,0)"><path fill="rgb(206,239,255)" fill-opacity="1" d=" M-155.18099975585938,103.23200225830078 C-132.20899963378906,42.948001861572266 -100.51399993896484,-42.520999908447266 22.785999298095703,-67.0770034790039 C-68.31500244140625,-50.41999816894531 -144.8260040283203,3.7799999713897705 -155.18099975585938,103.23200225830078z"/></g><g opacity="0.15" transform="matrix(1,0,0,1,0,0)"><path fill="rgb(206,239,255)" fill-opacity="1" d=" M-155.18099975585938,103.23200225830078 C-128.93899536132812,56.65599822998047 -93.73999786376953,-44.516998291015625 22.785999298095703,-67.0770034790039 C-71.36799621582031,-53.1870002746582 -147.5850067138672,3.0959999561309814 -155.18099975585938,103.23200225830078z"/></g><g opacity="0.15" transform="matrix(1,0,0,1,0,0)"><path fill="rgb(206,239,255)" fill-opacity="1" d=" M-155.18099975585938,103.23200225830078 C-121.04499816894531,64.94300079345703 -99.55899810791016,-31.695999145507812 22.785999298095703,-67.0770034790039 C-71.36799621582031,-53.1870002746582 -147.5850067138672,3.0959999561309814 -155.18099975585938,103.23200225830078z"/></g></g></g><g style="display: none;" transform="matrix(1.1004016399383545,-0.4488639533519745,0.4488639533519745,1.1004016399383545,261.6477966308594,235.7443084716797)" opacity="0.15368499999993654"><g opacity="1" transform="matrix(1,0,0,1,0,0)"><g opacity="0.15" transform="matrix(1,0,0,1,0,0)"><path fill="rgb(0,38,29)" fill-opacity="1" d=" M-155.18099975585938,103.23200225830078 C-130.0959930419922,82.83599853515625 -84.73899841308594,-45.534000396728516 38.56100082397461,-70.08999633789062 C-52.540000915527344,-53.43299865722656 -144.8260040283203,3.7799999713897705 -155.18099975585938,103.23200225830078z"/></g><g opacity="0.15" transform="matrix(1,0,0,1,0,0)"><path fill="rgb(0,38,29)" fill-opacity="1" d=" M-155.18099975585938,103.23200225830078 C-117.25900268554688,79.94200134277344 -77.96499633789062,-47.529998779296875 38.56100082397461,-70.08999633789062 C-55.59299850463867,-56.20000076293945 -147.5850067138672,3.0959999561309814 -155.18099975585938,103.23200225830078z"/></g><g opacity="0.15" transform="matrix(1,0,0,1,0,0)"><path fill="rgb(0,38,29)" fill-opacity="1" d=" M-155.18099975585938,103.23200225830078 C-108.75900268554688,94.16100311279297 -83.78399658203125,-34.70899963378906 38.56100082397461,-70.08999633789062 C-55.59299850463867,-56.20000076293945 -147.5850067138672,3.0959999561309814 -155.18099975585938,103.23200225830078z"/></g></g><g opacity="1" transform="matrix(1,0,0,1,0,0)"><g opacity="0.15" transform="matrix(1,0,0,1,0,0)"><path fill="rgb(206,239,255)" fill-opacity="1" d=" M38.56100082397461,-70.08999633789062 C-50.69499969482422,-53.61800003051758 -145.3979949951172,5.359000205993652 -155.18099975585938,103.23200225830078 C-148.59800720214844,-3.4690001010894775 -73.24299621582031,-49.54999923706055 38.56100082397461,-70.08999633789062z"/></g><g opacity="0.15" transform="matrix(1,0,0,1,0,0)"><path fill="rgb(206,239,255)" fill-opacity="1" d=" M38.56100082397461,-70.08999633789062 C-51.5629997253418,-50.34299850463867 -141.22000122070312,6.021999835968018 -155.18099975585938,103.23200225830078 C-152.3780059814453,-8.973999977111816 -78.81700134277344,-49.51499938964844 38.56100082397461,-70.08999633789062z"/></g><g opacity="0.15" transform="matrix(1,0,0,1,0,0)"><path fill="rgb(206,239,255)" fill-opacity="1" d=" M38.56100082397461,-70.08999633789062 C-50.082000732421875,-47.79100036621094 -138.63800048828125,8.159000396728516 -155.18099975585938,103.23200225830078 C-161.78199768066406,-12.746999740600586 -76.16200256347656,-49.6150016784668 38.56100082397461,-70.08999633789062z"/></g></g></g><g style="display: block;" transform="matrix(-0.9482570886611938,0.22863684594631195,-0.22863684594631195,-0.9482570886611938,301.5224914550781,357.6515197753906)" opacity="0.18377333333327783"><g opacity="1" transform="matrix(1,0,0,1,0,0)"><g opacity="0.15" transform="matrix(1,0,0,1,0,0)"><path fill="rgb(0,38,29)" fill-opacity="1" d=" M22.785999298095703,-67.0770034790039 C-66.47100067138672,-50.60499954223633 -145.3979949951172,5.359000205993652 -155.18099975585938,103.23200225830078 C-145.4010009765625,-10.291000366210938 -89.01799774169922,-46.5369987487793 22.785999298095703,-67.0770034790039z"/></g><g opacity="0.15" transform="matrix(1,0,0,1,0,0)"><path fill="rgb(0,38,29)" fill-opacity="1" d=" M22.785999298095703,-67.0770034790039 C-67.33799743652344,-47.33000183105469 -141.22000122070312,6.021999835968018 -155.18099975585938,103.23200225830078 C-145.24899291992188,-25.736000061035156 -94.59200286865234,-46.50199890136719 22.785999298095703,-67.0770034790039z"/></g><g opacity="0.15" transform="matrix(1,0,0,1,0,0)"><path fill="rgb(0,38,29)" fill-opacity="1" d=" M22.785999298095703,-67.0770034790039 C-65.85700225830078,-44.77799987792969 -138.63800048828125,8.159000396728516 -155.18099975585938,103.23200225830078 C-154.00100708007812,-33.89500045776367 -91.93699645996094,-46.60200119018555 22.785999298095703,-67.0770034790039z"/></g></g><g opacity="1" transform="matrix(1,0,0,1,0,0)"><g opacity="0.15" transform="matrix(1,0,0,1,0,0)"><path fill="rgb(206,239,255)" fill-opacity="1" d=" M-155.18099975585938,103.23200225830078 C-132.20899963378906,42.948001861572266 -100.51399993896484,-42.520999908447266 22.785999298095703,-67.0770034790039 C-68.31500244140625,-50.41999816894531 -144.8260040283203,3.7799999713897705 -155.18099975585938,103.23200225830078z"/></g><g opacity="0.15" transform="matrix(1,0,0,1,0,0)"><path fill="rgb(206,239,255)" fill-opacity="1" d=" M-155.18099975585938,103.23200225830078 C-128.93899536132812,56.65599822998047 -93.73999786376953,-44.516998291015625 22.785999298095703,-67.0770034790039 C-71.36799621582031,-53.1870002746582 -147.5850067138672,3.0959999561309814 -155.18099975585938,103.23200225830078z"/></g><g opacity="0.15" transform="matrix(1,0,0,1,0,0)"><path fill="rgb(206,239,255)" fill-opacity="1" d=" M-155.18099975585938,103.23200225830078 C-121.04499816894531,64.94300079345703 -99.55899810791016,-31.695999145507812 22.785999298095703,-67.0770034790039 C-71.36799621582031,-53.1870002746582 -147.5850067138672,3.0959999561309814 -155.18099975585938,103.23200225830078z"/></g></g></g></g></g></svg>